<svg xmlns="http://www.w3.org/2000/svg">
  <symbol id="social-vk" width="60" height="60" viewBox="0 0 60 60" fill="none">
    <path d="M39.21 -0.00195312H20.7919C3.98438 -0.00195312 0 3.98242 0 20.7899V39.208C0 56.0155 3.98438 59.9999 20.7919 59.9999H39.21C56.0175 59.9999 60.0019 56.0155 60.0019 39.208V20.7899C60.0019 3.98242 55.9781 -0.00195312 39.21 -0.00195312ZM48.4388 42.8005H44.0831C42.4331 42.8005 41.925 41.4918 38.9569 38.4843C36.3787 35.9849 35.2369 35.653 34.6012 35.653C33.7031 35.653 33.4481 35.9062 33.4481 37.138V41.0737C33.4481 42.1293 33.1162 42.763 30.3225 42.763C25.7025 42.763 20.5763 39.9693 16.9819 34.7643C11.5613 27.1368 10.0781 21.4237 10.0781 20.2424C10.0781 19.6068 10.3312 19.0124 11.5519 19.0124H15.9169C17.0212 19.0124 17.4412 19.5205 17.8706 20.7018C20.0287 26.9324 23.6231 32.3905 25.1063 32.3905C25.6538 32.3905 25.9069 32.1374 25.9069 30.7405V24.3055C25.74 21.3374 24.1781 21.0824 24.1781 20.0287C24.1781 19.5205 24.5981 19.0124 25.2713 19.0124H32.1356C33.0638 19.0124 33.405 19.5205 33.405 20.6137V29.2949C33.405 30.2324 33.825 30.5643 34.0781 30.5643C34.6256 30.5643 35.0944 30.2324 36.1087 29.2162C39.2437 25.7005 41.49 20.2799 41.49 20.2799C41.7825 19.6443 42.2906 19.0499 43.395 19.0499H47.76C49.0687 19.0499 49.3613 19.723 49.0687 20.6605C48.5213 23.1993 43.1794 30.7387 43.1794 30.7387C42.72 31.4999 42.5437 31.8318 43.1794 32.6812C43.6481 33.3168 45.1725 34.6349 46.1869 35.8162C48.0525 37.9349 49.4869 39.7124 49.8694 40.9424C50.2988 42.163 49.665 42.7987 48.4331 42.7987L48.4388 42.8005Z" fill="white" />
    <path d="M48.4388 42.8008H44.0831C42.4331 42.8008 41.925 41.4921 38.9569 38.4846C36.3787 35.9852 35.2369 35.6533 34.6012 35.6533C33.7031 35.6533 33.4481 35.9064 33.4481 37.1383V41.0739C33.4481 42.1296 33.1162 42.7633 30.3225 42.7633C25.7025 42.7633 20.5763 39.9696 16.9819 34.7646C11.5612 27.1371 10.0781 21.4239 10.0781 20.2427C10.0781 19.6071 10.3312 19.0127 11.5519 19.0127H15.9169C17.0213 19.0127 17.4412 19.5208 17.8706 20.7021C20.0287 26.9327 23.6231 32.3908 25.1063 32.3908C25.6538 32.3908 25.9069 32.1377 25.9069 30.7408V24.3058C25.74 21.3377 24.1781 21.0827 24.1781 20.0289C24.1781 19.5208 24.5981 19.0127 25.2713 19.0127H32.1356C33.0637 19.0127 33.405 19.5208 33.405 20.6139V29.2952C33.405 30.2327 33.825 30.5646 34.0781 30.5646C34.6256 30.5646 35.0944 30.2327 36.1087 29.2164C39.2437 25.7008 41.49 20.2802 41.49 20.2802C41.7825 19.6446 42.2906 19.0502 43.395 19.0502H47.76C49.0688 19.0502 49.3612 19.7233 49.0687 20.6608C48.5212 23.1996 43.1794 30.7389 43.1794 30.7389C42.72 31.5002 42.5438 31.8321 43.1794 32.6814C43.6481 33.3171 45.1725 34.6352 46.1869 35.8164C48.0525 37.9352 49.4869 39.7127 49.8694 40.9427C50.2988 42.1633 49.665 42.7989 48.4331 42.7989L48.4388 42.8008Z" fill="#909090" />
  </symbol>
</svg>