<svg width="32" height="47" viewBox="0 0 32 47" fill="none" xmlns="http://www.w3.org/2000/svg">
<g clip-path="url(#clip0_422_413)">
<path d="M15.9974 0C13.6002 0 11.3388 0.587983 9.29211 1.62826C9.07727 1.74133 8.86243 1.85441 8.6589 1.97879C8.89635 1.86572 5.97904 28.1214 21.7077 34.4535C27.7232 31.8981 31.9974 25.4077 31.9974 17.8091C31.9974 7.97169 24.8285 0 15.9974 0Z" fill="#261C15"/>
<path d="M5.80071 31.5363C2.26148 28.2684 0 23.3384 0 17.8091C0 10.9229 3.51661 4.94134 8.66148 1.97881C8.89894 1.86573 9.1364 1.75266 9.40777 1.65089C11.1039 0.949836 13.4898 0.271394 16.0565 0.644537C17.9455 0.922006 20.2876 1.79373 21.5906 3.98216C21.5968 3.99253 21.6074 4.00133 21.6157 4.01011C21.7299 4.13075 26.9456 9.9505 15.7625 17.8883C13.5689 19.4487 16.6784 24.6388 14.5413 27.8953C11.3527 32.7914 5.80071 31.5363 5.80071 31.5363Z" fill="#261C15"/>
<path opacity="0.3" d="M21.7105 34.4536C10.6858 26.482 16.396 19.1661 20.9868 13.8177C23.8163 10.5351 22.7042 5.20516 22.6981 5.1908C23.173 5.68832 36.6137 21.8572 21.7105 34.4536Z" fill="#261C15"/>
<path opacity="0.3" d="M12.5844 14.756C12.5844 14.7447 12.607 14.7108 12.607 14.7108C12.494 14.7787 3.15404 19.8444 5.79997 31.5362L5.81128 31.5362C5.81128 31.5362 11.3632 32.7913 14.5632 27.8952C16.4063 25.0684 14.3145 20.7829 15.1625 18.691C13.9752 16.373 12.5731 14.79 12.5844 14.756Z" fill="#261C15"/>
<path d="M18.9061 26.1765C19.0983 23.768 17.1421 23.1235 16.7803 22.7503C16.4184 22.3772 16.1923 21.9362 16.6898 22.332C17.176 22.7277 21.3598 24.1185 22.2418 24.2542C23.1237 24.3899 23.429 22.9878 23.1237 22.4337C22.8184 21.8684 23.1464 21.9249 23.8361 21.4726C24.5372 21.0203 23.6326 20.3758 23.757 20.3645C24.5824 20.2514 24.4128 19.4938 24.1866 19.4373C23.9605 19.3694 23.3612 18.5553 23.8474 18.2161C25.1139 17.3454 25.7245 17.4585 24.4241 16.373C23.1124 15.2762 23.1011 14.1907 23.5534 13.3991C25.7471 9.83733 23.4261 5.51334 21.5902 3.9812C21.5902 3.9812 22.0988 4.72927 22.3236 5.76039C22.9539 8.65127 21.6425 11.7709 17.3004 13.6253C16.1697 14.1115 15.6917 13.8545 15.0842 13.5914C14.4899 13.3339 13.1393 13.2861 12.5852 14.7447C12.5287 14.8917 12.4835 15.05 12.4609 15.2309C12.2799 16.3843 13.271 19.122 13.5464 19.9122C14.3713 22.2796 14.1796 24.209 13.4446 25.7807C12.4043 28.0083 10.3011 29.4895 8.55979 30.3828C7.0446 31.1743 5.80078 31.5362 5.80078 31.5362C6.61492 32.2938 7.4969 32.927 8.44672 33.4923C10.6969 34.8379 13.2637 35.5955 16.0001 35.5955C18.0128 35.5955 19.9351 35.1998 21.7103 34.4535C18.499 31.9998 18.8156 27.3185 18.9061 26.1765Z" fill="#FDFDFD"/>
</g>
<path d="M6.6 43.6182H5.73L4.84 41.1682H2L1.09 43.6182H0.6L3.19 36.6182H4.06L6.6 43.6182ZM4.67 40.7082L3.43 37.2882L2.17 40.7082H4.67ZM9.38117 43.2682C9.09117 43.5282 8.73117 43.7182 8.35117 43.7182C7.76117 43.7182 7.50117 43.0382 7.50117 42.3682V36.6182H8.28117V42.3682C8.28117 42.7982 8.35117 43.2582 8.72117 43.2582C8.97117 43.2582 9.19117 43.1282 9.38117 42.9682V43.2682ZM14.212 44.2182C14.212 45.1582 13.612 46.0182 12.732 46.0182C12.102 46.0182 11.482 45.8582 10.922 45.5982V45.2882C11.402 45.4582 11.912 45.5582 12.422 45.5582C13.052 45.5582 13.432 44.9082 13.432 44.2182V39.1182H14.212V44.2182ZM13.152 43.1582C12.692 43.4882 12.162 43.7182 11.602 43.7182C10.882 43.7182 10.332 43.0982 10.332 42.3682V39.1182H11.112V42.3682C11.112 42.8482 11.462 43.2582 11.932 43.2582C12.372 43.2582 12.782 43.0982 13.152 42.8482V43.1582ZM19.6917 41.3682C19.6917 42.8982 18.9717 43.7182 17.6317 43.7182C16.2817 43.7182 15.5617 42.8982 15.5617 41.3682C15.5617 39.8382 16.2817 39.0182 17.6317 39.0182C18.9717 39.0182 19.6917 39.8382 19.6917 41.3682ZM18.8117 41.3682C18.8117 40.1182 18.4017 39.4382 17.6317 39.4382C16.8517 39.4382 16.4417 40.1182 16.4417 41.3682C16.4417 42.6182 16.8517 43.2982 17.6317 43.2982C18.4017 43.2982 18.8117 42.6182 18.8117 41.3682ZM21.8261 43.6182H21.0461V39.1182H21.8261V43.6182ZM24.9261 43.6182H24.1461V40.3682C24.1461 39.8882 23.7961 39.4782 23.3261 39.4782C22.8861 39.4782 22.4761 39.6382 22.1061 39.8882V39.5782C22.5661 39.2482 23.0961 39.0182 23.6561 39.0182C24.3761 39.0182 24.9261 39.6382 24.9261 40.3682V43.6182ZM29.1958 43.1582C28.7958 43.4782 28.3258 43.7182 27.8158 43.7182C26.8158 43.7182 26.1258 43.1782 26.1258 42.2282C26.1258 41.2282 26.9058 40.7282 27.9658 40.7282C28.3958 40.7282 28.8058 40.8282 29.1958 41.0082V41.4282C28.8558 41.2482 28.4858 41.1482 28.1058 41.1482C27.4958 41.1482 27.0058 41.6282 27.0058 42.2282C27.0058 42.8882 27.4358 43.2982 28.1058 43.2982C28.5258 43.2982 28.8958 43.0482 29.1958 42.7382V43.1582ZM30.2558 43.6182H29.4758V40.8182C29.4758 40.1182 29.0458 39.4782 28.3958 39.4782C27.8258 39.4782 27.2758 39.6282 26.7658 39.8882V39.5782C27.3558 39.2382 28.0058 39.0182 28.6858 39.0182C29.5958 39.0182 30.2558 39.8582 30.2558 40.8182V43.6182Z" fill="#261C15"/>
<defs>
<clipPath id="clip0_422_413">
<rect width="32" height="35.6182" fill="white"/>
</clipPath>
</defs>
</svg>
